<svg width="414" height="384" viewBox="0 0 414 384" fill="none" xmlns="http://www.w3.org/2000/svg">
<path d="M2 1H77.9045C75.5779 4.05363 70.8375 13.5635 70.4885 27.174C70.1395 40.7844 70.3431 168.659 70.4885 230.895C72.8151 247.762 86.3674 281.149 121.964 279.753C163.637 278.118 172.785 243.577 173.779 232.751C173.809 229.653 173.87 225.029 173.875 230.148L173.779 22.8116C173.811 18.3039 172.567 8.06697 167.332 3.18116L298.638 1C323.358 2.74493 375.502 20.107 386.321 75.5958C390.829 96.3895 389.723 143.823 349.241 167.205C369.453 175.638 410.401 204.284 412.495 251.397C414.676 270.01 410.924 315.611 378.469 349.114C369.162 358.565 341.825 378.777 299.947 382.703H129.38L197.432 331.664L290.35 329.783L305.618 329.047L312.402 326.905C314.175 326.114 315.978 325.16 317.849 324.089L321.758 321.768C342.261 308.98 364.08 284.071 351.858 244.418C349.241 229.44 333.624 199.399 292.095 199.05H249.78V144.521L295.585 142.339C306.054 140.449 327.691 130.561 330.483 106.132C331.356 97.6982 329.872 78.0387 316.96 66.8711C314.342 61.3455 301.692 50.8178 272.028 52.9117H233.203V232.751C231.895 253.362 220.116 299.732 183.473 320.322C170.822 328.611 138.017 343.617 108.005 337.335C87.647 335.3 42.0461 320.933 22.5029 279.753C17.9952 272.773 9.15421 253.23 9.85219 230.895V22.8116C8.54349 16.9952 5.14087 4.48986 2 1Z" fill="black"/>
<path d="M173.876 230.895C173.876 231.393 173.846 232.017 173.779 232.751M173.876 230.895C173.876 224.613 173.811 229.515 173.779 232.751M173.876 230.895L173.779 22.8116C173.811 18.3039 172.567 8.06697 167.332 3.18116L298.638 1C323.358 2.74493 375.502 20.107 386.321 75.5958C390.829 96.3895 389.723 143.823 349.241 167.205C369.453 175.638 410.401 204.284 412.495 251.397C414.676 270.01 410.924 315.611 378.469 349.114C369.162 358.565 341.825 378.777 299.947 382.703H129.38L197.432 331.664L290.35 329.783L305.618 329.047M173.779 232.751C172.785 243.577 163.637 278.118 121.964 279.753C86.3674 281.149 72.8151 247.762 70.4885 230.895C70.3431 168.659 70.1395 40.7844 70.4885 27.174C70.8375 13.5635 75.5779 4.05363 77.9045 1H2C5.14087 4.48986 8.54349 16.9952 9.85219 22.8116V230.895C9.15421 253.23 17.9952 272.773 22.5029 279.753C42.0461 320.933 87.647 335.3 108.005 337.335C138.017 343.617 170.822 328.611 183.473 320.322C220.116 299.732 231.895 253.362 233.203 232.751V52.9117H272.028C301.692 50.8178 314.342 61.3455 316.96 66.8711C329.872 78.0387 331.356 97.6982 330.483 106.132C327.691 130.561 306.054 140.449 295.584 142.339L249.78 144.521V199.05H292.095C333.624 199.399 349.241 229.44 351.858 244.418C364.08 284.071 342.261 308.98 321.758 321.768M305.618 329.047C310.853 328.174 315.878 325.346 321.758 321.768M305.618 329.047L313.906 326.429L321.758 321.768" stroke="black"/>
</svg>
