<svg width="219" height="31" viewBox="0 0 219 31" fill="none" xmlns="http://www.w3.org/2000/svg">
<g clip-path="url(#clip0_1_4)">
<path fill-rule="evenodd" clip-rule="evenodd" d="M0 0.0258789H30.9434V27.7709C30.9434 29.4759 29.5521 30.8709 27.8516 30.8709H3.066C1.39129 30.8709 0 29.4759 0 27.7709V0.0258789Z" fill="white"/>
<path d="M8.65694 5.91589C6.28659 12.5292 10.1771 17.3859 15.1239 17.5151C21.1013 17.6442 23.7293 12.2709 21.5393 6.07089" stroke="#A39E9E" stroke-width="2.66683"/>
<path fill-rule="evenodd" clip-rule="evenodd" d="M21.3332 4.10754C22.0546 4.10754 22.6214 4.65004 22.6214 5.29588C22.6214 5.96754 22.0546 6.51004 21.3332 6.51004C20.6375 6.51004 20.0707 5.96754 20.0707 5.29588C20.0707 4.65004 20.6375 4.10754 21.3332 4.10754Z" fill="#A39E9E" stroke="white" stroke-width="0.666708"/>
<path fill-rule="evenodd" clip-rule="evenodd" d="M8.70847 4.13342C9.42988 4.13342 9.9967 4.67592 9.9967 5.32176C9.9967 5.99342 9.42988 6.51009 8.70847 6.51009C8.01282 6.51009 7.446 5.99342 7.446 5.32176C7.446 4.67592 8.01282 4.13342 8.70847 4.13342Z" fill="#A39E9E" stroke="white" stroke-width="0.666708"/>
<path d="M47.9224 16.6108C47.9224 21.1317 45.9385 23.405 41.9707 23.405C38.2091 23.405 36.3025 21.2092 36.3025 16.8433V6.89749H37.7968V16.7142C37.7968 18.4967 38.1575 19.8142 38.8789 20.7183C39.6004 21.5967 40.7082 22.0358 42.2026 22.0358C45.0109 22.0358 46.428 20.305 46.428 16.8692V6.89749H47.9224V16.6108ZM62.9947 23.1208L54.0286 10.1008C53.9255 9.94583 53.7967 9.76499 53.6937 9.58416C53.5906 9.42916 53.4875 9.24833 53.436 9.09333H53.3587C53.3845 9.22249 53.3845 9.40333 53.4102 9.66166C53.4102 9.89416 53.436 10.1783 53.436 10.54V23.1208H51.9159V6.89749H53.5906L62.4021 19.7625C62.5567 19.9692 62.6598 20.15 62.7886 20.3308C62.8917 20.5117 62.9947 20.6667 63.072 20.8217H63.1235C63.0978 20.5633 63.072 20.305 63.072 19.9692C63.0462 19.685 63.0462 19.3233 63.0462 18.9617V6.89749H64.5664V23.1208H62.9947ZM70.2604 23.1208H68.7402V6.89749H70.2604V23.1208ZM75.9544 8.29249V14.3892H81.8545V15.7583H75.9544V23.1208H74.46V6.89749H82.344V8.29249H75.9544ZM92.0315 23.405C90.8721 23.405 89.8415 23.1725 88.8882 22.7592C87.9607 22.32 87.1878 21.7517 86.5179 21.0025C85.8738 20.2792 85.3842 19.4008 85.0235 18.4192C84.6628 17.4117 84.5082 16.3267 84.5082 15.19C84.5082 13.9242 84.6628 12.7617 85.0235 11.7025C85.3842 10.6692 85.8738 9.76499 86.5437 9.01583C87.2135 8.26666 88.038 7.67249 89.0171 7.25916C89.9704 6.84583 91.0782 6.63916 92.3149 6.63916C93.4744 6.63916 94.5049 6.84583 95.4067 7.23333C96.3085 7.64666 97.0814 8.21499 97.7255 8.96416C98.3697 9.68749 98.8592 10.54 99.1941 11.5475C99.5291 12.5292 99.7094 13.6142 99.7094 14.7767C99.7094 16.0167 99.5548 17.1533 99.2199 18.2125C98.8849 19.2458 98.3954 20.15 97.7255 20.925C97.0814 21.7 96.2827 22.2942 95.3294 22.7333C94.3761 23.1725 93.294 23.405 92.0315 23.405ZM92.1604 8.00833C91.1813 8.00833 90.3311 8.18916 89.5581 8.55083C88.8109 8.93833 88.1668 9.42916 87.6515 10.075C87.1362 10.7208 86.7498 11.4442 86.4664 12.3225C86.2087 13.175 86.0799 14.0792 86.0541 15.035C86.0541 15.965 86.1829 16.8433 86.4148 17.67C86.6725 18.5225 87.0332 19.2717 87.5227 19.9175C88.0122 20.5633 88.6306 21.08 89.4035 21.4417C90.1507 21.8292 91.0267 22.0358 92.0315 22.0358C93.0364 22.0358 93.9381 21.855 94.6853 21.4933C95.4582 21.1575 96.1024 20.6667 96.5919 20.0467C97.1072 19.4267 97.4937 18.6775 97.7513 17.825C98.0089 16.9725 98.1378 16.0167 98.1378 15.0092C98.1378 14.0533 98.0347 13.1492 97.8028 12.2967C97.5709 11.4442 97.2102 10.7208 96.7207 10.075C96.2312 9.42916 95.6386 8.93833 94.8657 8.55083C94.1185 8.18916 93.2167 8.00833 92.1604 8.00833ZM111.767 23.1208L109.32 18.4708C109.088 18.0058 108.856 17.6183 108.624 17.3083C108.392 16.9983 108.16 16.7658 107.928 16.585C107.671 16.3783 107.413 16.2492 107.155 16.1717C106.872 16.0942 106.563 16.0683 106.228 16.0683H104.45V23.1208H102.956V6.89749H107.593C108.212 6.89749 108.804 7.00083 109.371 7.18166C109.938 7.36249 110.453 7.62083 110.891 7.98249C111.329 8.31833 111.69 8.78333 111.948 9.29999C112.231 9.84249 112.36 10.4625 112.36 11.1858C112.36 11.7542 112.257 12.2708 112.102 12.7617C111.922 13.2267 111.664 13.6658 111.355 14.0533C111.046 14.415 110.634 14.725 110.196 14.9833C109.732 15.2417 109.217 15.4483 108.65 15.5775V15.6292C108.882 15.7067 109.062 15.8358 109.242 15.965C109.423 16.12 109.603 16.275 109.783 16.4817C109.938 16.6883 110.118 16.9208 110.273 17.1792C110.453 17.4633 110.608 17.7475 110.788 18.0833L113.519 23.1208H111.767ZM104.45 8.29249V14.6992H107.13C107.671 14.6992 108.16 14.6217 108.624 14.4667C109.062 14.2858 109.448 14.0792 109.783 13.7692C110.093 13.485 110.35 13.1233 110.531 12.71C110.685 12.2967 110.788 11.8317 110.788 11.315C110.788 10.3592 110.479 9.63583 109.886 9.09333C109.268 8.55083 108.392 8.29249 107.258 8.29249H104.45ZM130.576 23.1208V11.935C130.576 11.3408 130.627 10.4367 130.704 9.14499H130.653C130.55 9.48083 130.472 9.79083 130.369 10.0233C130.292 10.2817 130.215 10.4883 130.138 10.6433L124.495 23.1208H123.851L118.208 10.7208C118.028 10.3333 117.874 9.81666 117.693 9.11916H117.642C117.693 9.48083 117.693 9.86833 117.719 10.3075C117.719 10.7725 117.745 11.2633 117.745 11.8058V23.1208H116.276V6.89749H118.028L123.516 19.0908C123.645 19.3492 123.748 19.6075 123.851 19.8658C123.98 20.15 124.057 20.4342 124.16 20.7183H124.237C124.34 20.4342 124.418 20.15 124.521 19.8917C124.598 19.6592 124.701 19.375 124.83 19.0908L130.369 6.89749H132.044V23.1208H130.576ZM142.582 23.1208V6.89749H146.988C147.658 6.89749 148.276 7.00083 148.817 7.18166C149.332 7.36249 149.796 7.62083 150.182 7.93083C150.569 8.26666 150.852 8.65416 151.058 9.11916C151.265 9.58416 151.368 10.075 151.368 10.6433C151.368 11.1083 151.29 11.5475 151.162 11.935C151.033 12.3483 150.852 12.71 150.62 13.0458C150.363 13.3817 150.079 13.6917 149.719 13.9242C149.384 14.1825 148.972 14.3633 148.534 14.5183V14.5442C149.075 14.5958 149.564 14.7508 150.028 14.9575C150.466 15.1642 150.827 15.4483 151.162 15.7842C151.471 16.12 151.703 16.5075 151.883 16.9725C152.063 17.4375 152.141 17.9283 152.141 18.4708C152.141 19.1425 152.012 19.7883 151.78 20.3567C151.522 20.925 151.187 21.4158 150.724 21.8292C150.286 22.2425 149.744 22.5525 149.126 22.785C148.508 22.9917 147.838 23.1208 147.091 23.1208H142.582ZM144.076 8.29249V14.0275H146.163C146.73 14.0275 147.22 13.9758 147.658 13.8208C148.096 13.6917 148.482 13.4592 148.791 13.2008C149.1 12.9167 149.358 12.6067 149.513 12.2192C149.693 11.8317 149.77 11.3925 149.77 10.9275C149.77 9.17083 148.688 8.29249 146.498 8.29249H144.076ZM144.076 15.3967V21.7517H146.859C148.044 21.7517 148.972 21.4675 149.616 20.8992C150.26 20.3308 150.569 19.5558 150.569 18.5225C150.569 16.43 149.178 15.3967 146.344 15.3967H144.076ZM166.904 16.6108C166.904 21.1317 164.92 23.405 160.952 23.405C157.165 23.405 155.258 21.2092 155.258 16.8433V6.89749H156.778V16.7142C156.778 18.4967 157.139 19.8142 157.835 20.7183C158.556 21.5967 159.664 22.0358 161.158 22.0358C163.992 22.0358 165.409 20.305 165.409 16.8692V6.89749H166.904V16.6108ZM181.77 22.5267C180.508 23.095 179.09 23.405 177.493 23.405C176.334 23.405 175.303 23.1983 174.376 22.785C173.448 22.3975 172.649 21.8292 171.979 21.1058C171.335 20.4083 170.82 19.5558 170.459 18.5483C170.099 17.5667 169.944 16.4817 169.944 15.3192C169.944 14.105 170.124 12.9425 170.511 11.8833C170.872 10.8242 171.413 9.91999 172.134 9.14499C172.83 8.34416 173.68 7.74999 174.685 7.28499C175.69 6.84583 176.823 6.63916 178.06 6.63916C179.451 6.63916 180.688 6.84583 181.77 7.25916V8.86083C180.611 8.29249 179.374 8.00833 178.06 8.00833C177.004 8.00833 176.076 8.18916 175.277 8.55083C174.453 8.91249 173.757 9.40333 173.216 10.0492C172.649 10.695 172.237 11.4442 171.928 12.3483C171.644 13.2008 171.49 14.1825 171.49 15.2158C171.49 16.1458 171.619 17.0242 171.902 17.8508C172.16 18.6775 172.546 19.4008 173.062 20.0208C173.577 20.6408 174.221 21.1317 174.994 21.4933C175.741 21.855 176.643 22.0358 177.648 22.0358C179.219 22.0358 180.585 21.7 181.77 21.0542V22.5267ZM193.673 23.1208L187.103 15.5258C186.923 15.3192 186.82 15.1642 186.743 15.0608H186.717V23.1208H185.222V6.89749H186.717V14.5442H186.743C186.82 14.4408 186.871 14.3633 186.923 14.2858C186.974 14.2083 187.052 14.1308 187.129 14.0533L193.416 6.89749H195.322L188.314 14.725L195.786 23.1208H193.673ZM197.976 23.1208V6.89749H205.86V8.29249H199.496V14.2342H205.396V15.5775H199.496V21.7517H206.221V23.1208H197.976ZM214.259 8.29249V23.1208H212.765V8.29249H208.102V6.89749H218.948V8.29249H214.259Z" fill="white"/>
</g>
<defs>
<clipPath id="clip0_1_4">
<rect width="219" height="31" fill="white"/>
</clipPath>
</defs>
</svg>
