<svg width="85" height="91" viewBox="0 0 85 91" fill="none" xmlns="http://www.w3.org/2000/svg">
<g clip-path="url(#clip0_90_295)">
<path d="M84.2972 32.0511H84.5914V0.588867L84.2972 0.932449V32.0511Z" fill="#EDEDED"/>
<path d="M2.76197 79.7598L7.1419 85.0771H9.4626V75.1133H6.70063V80.4143L2.32071 75.1133H0V85.0771H2.76197V79.7598Z" fill="#EDEDED"/>
<path d="M14.104 84.603C14.9375 85.0447 15.8854 85.2738 16.9313 85.2738C17.9773 85.2738 18.9252 85.0447 19.7587 84.603C20.5922 84.1612 21.2622 83.5395 21.7362 82.7542C22.2101 81.9688 22.4553 81.0853 22.4553 80.0873C22.4553 79.1057 22.2101 78.2222 21.7362 77.4205C21.2622 76.6351 20.5922 76.0134 19.7587 75.5717C18.9252 75.1299 17.9773 74.9009 16.9313 74.9009C15.8854 74.9009 14.9375 75.1299 14.104 75.5717C13.2705 76.0134 12.6004 76.6351 12.1265 77.4205C11.6526 78.2058 11.4074 79.0893 11.4074 80.0873C11.4074 81.069 11.6526 81.9525 12.1265 82.7542C12.6004 83.5395 13.2705 84.1612 14.104 84.603ZM14.6106 78.5985C14.8394 78.1731 15.1663 77.8295 15.5749 77.6004C15.9835 77.3714 16.4411 77.2405 16.9313 77.2405C17.438 77.2405 17.8956 77.355 18.3042 77.6004C18.7127 77.8295 19.0396 78.1731 19.2684 78.5985C19.4972 79.0239 19.6279 79.5311 19.6279 80.0873C19.6279 80.6436 19.5135 81.1344 19.2684 81.5762C19.0396 82.0016 18.7127 82.3451 18.3042 82.5742C17.8956 82.8033 17.438 82.9341 16.9313 82.9341C16.4247 82.9341 15.9671 82.8196 15.5749 82.5742C15.1663 82.3451 14.8394 82.0016 14.6106 81.5762C14.3818 81.1508 14.2511 80.6436 14.2511 80.0873C14.2511 79.5311 14.3655 79.0402 14.6106 78.5985Z" fill="#EDEDED"/>
<path d="M27.2274 75.1133H24.4164V85.0771H27.2274V75.1133Z" fill="#EDEDED"/>
<path d="M36.7228 81.9358C37.3438 81.625 37.8341 81.2159 38.1609 80.676C38.5041 80.1361 38.6676 79.5144 38.6676 78.7945C38.6676 78.0419 38.4878 77.3875 38.1283 76.8312C37.7687 76.2749 37.2621 75.8495 36.592 75.555C35.922 75.2605 35.1538 75.1133 34.255 75.1133H29.7116V85.0771H32.5226V82.4267H34.0588L35.8566 85.0771H38.8637L36.7228 81.9358ZM35.3826 79.8743C35.0885 80.1198 34.6472 80.2506 34.0752 80.2506H32.5063V77.3384H34.0752C34.6472 77.3384 35.0885 77.4693 35.3826 77.7147C35.6768 77.9765 35.8239 78.3364 35.8239 78.7945C35.8239 79.269 35.6768 79.6126 35.3826 79.8743Z" fill="#EDEDED"/>
<path d="M45.2865 75.1133V85.0771H52.837V82.8357H48.0975V75.1133H45.2865Z" fill="#EDEDED"/>
<path d="M63.6887 80.6269V75.1133H60.9104V80.5451C60.9104 82.1322 60.2894 82.9338 59.0309 82.9338C57.7725 82.9338 57.1352 82.1322 57.1352 80.5451V75.1133H54.3242V80.6269C54.3242 82.0994 54.7327 83.2447 55.5499 84.0628C56.367 84.8645 57.511 85.2735 58.9983 85.2735C60.4691 85.2735 61.6295 84.8645 62.4466 84.0628C63.2801 83.2611 63.6887 82.1158 63.6887 80.6269Z" fill="#EDEDED"/>
<path d="M68.2484 85.0771L70.275 81.9849L72.3342 85.0771H75.5701L71.8766 79.9234L75.3413 75.1133H72.3015L70.3403 77.9928L68.3628 75.1133H65.1923L68.657 80.0379L65.0289 85.0771H68.2484Z" fill="#EDEDED"/>
<path d="M84.8039 77.2893V75.1133H76.9919V85.0771H84.9837V82.9011H79.7866V81.0687H84.1992V78.9745H79.7866V77.2893H84.8039Z" fill="#EDEDED"/>
<path d="M19.9058 12.3692L24.2367 12.2874C24.2203 12.2874 24.2203 12.271 24.204 12.271H21.8669L20.4941 12.3201C19.9384 12.3364 19.4318 12.3528 19.0069 12.3692C18.582 12.3855 18.3205 12.4019 18.2551 12.4019C18.1734 12.4019 17.9283 12.3855 17.487 12.3692C17.0621 12.3528 16.5554 12.3364 15.9998 12.3201C15.4278 12.3037 14.8394 12.2874 14.2021 12.271C13.5647 12.2546 13.0254 12.2383 12.5678 12.2383C11.9631 12.2383 11.6689 12.3855 11.6689 12.6964C11.6689 12.9254 11.816 13.04 12.1265 13.04C12.3063 13.04 12.5841 13.0563 12.911 13.0891C13.2378 13.1218 13.5647 13.1709 13.8588 13.2527C15.0192 13.5144 15.6566 14.5615 15.771 16.4103C15.8037 16.8684 15.8364 17.3429 15.8527 17.8501C15.869 18.3573 15.8854 19.0281 15.8854 19.8789C15.8854 20.7297 15.8854 21.8422 15.8854 23.2329C15.8854 24.6236 15.8854 26.4069 15.8854 28.5829V30.2681H20.6085V28.5829C20.6085 26.4069 20.6085 24.6236 20.6085 23.2329C20.6085 21.8422 20.6085 20.7297 20.6085 19.8789C20.6085 19.0281 20.6249 18.3573 20.6412 17.8501C20.6575 17.3429 20.6902 16.8684 20.7229 16.4103C20.7883 15.5268 20.9517 14.856 21.1805 14.3652C20.8046 13.8417 20.4124 13.3017 20.0365 12.7782L19.9058 12.3692Z" fill="#EDEDED"/>
<path d="M15.8854 38.481C15.8854 41.1806 15.869 43.602 15.8527 45.7126C15.8364 47.8395 15.7546 49.492 15.6076 50.7027C15.4932 51.5208 15.3297 52.2243 15.1336 52.7806C14.9212 53.3368 14.5453 53.6804 13.9733 53.7949C13.7118 53.8768 13.4339 53.9258 13.1234 53.9586C12.8292 53.9913 12.5351 54.0076 12.2736 54.0076C11.9794 54.0076 11.816 54.1222 11.816 54.3512C11.816 54.6457 12.1102 54.8093 12.7148 54.8093C13.1234 54.8093 13.6301 54.793 14.2347 54.7766C14.8394 54.7602 15.4114 54.7439 15.9834 54.7275C16.5391 54.7112 17.0457 54.6948 17.4707 54.6784C17.8956 54.6621 18.1571 54.6457 18.2388 54.6457C18.3205 54.6457 18.5656 54.6621 18.9906 54.6784C19.4155 54.6948 19.9711 54.7112 20.6249 54.7275C21.2786 54.7439 21.9977 54.7602 22.7985 54.7766C23.5829 54.793 24.3674 54.8093 25.1682 54.8093C25.7729 54.8093 26.0671 54.6621 26.0671 54.3512C26.0671 54.1222 25.92 54.0076 25.6095 54.0076C25.348 54.0076 24.9558 53.9913 24.4491 53.9586C23.9425 53.9258 23.4849 53.8604 23.0763 53.7949C22.2101 53.6804 21.6545 53.3368 21.393 52.7806C21.1315 52.2243 20.9681 51.5208 20.8863 50.7027C20.7393 49.5084 20.6575 47.8395 20.6412 45.7126C20.6249 43.5857 20.6085 41.1806 20.6085 38.481V32.6074H15.8854V38.481Z" fill="#EDEDED"/>
<path d="M50.696 52.7155C50.9085 52.1592 51.0555 51.4557 51.1699 50.6376C51.317 49.4432 51.3987 47.7744 51.4151 45.6475C51.4151 45.582 51.4151 45.5002 51.4151 45.4184C43.2926 34.342 35.1211 23.2165 26.9659 12.2383L24.2203 12.2874C24.4981 12.3528 24.6452 12.4837 24.6452 12.68C24.6452 12.9091 24.4981 13.0236 24.1876 13.0236C24.0079 13.0236 23.7954 13.04 23.5993 13.0563C23.3868 13.0727 23.1253 13.1218 22.7821 13.2036C22.0303 13.3508 21.5237 13.6781 21.2295 14.1852C21.1969 14.2343 21.1805 14.2998 21.1478 14.3652C23.4685 17.572 25.9036 20.926 28.4532 24.4272C32.8167 30.399 37.3111 36.469 41.9361 42.6534C44.5674 46.1874 47.2803 49.8032 50.075 53.5008C50.3691 53.3044 50.5653 53.0427 50.696 52.7155Z" fill="#EDEDED"/>
<path d="M22.7985 13.2033C23.1417 13.1215 23.4032 13.0888 23.6156 13.0561C23.8281 13.0397 24.0242 13.0234 24.204 13.0234C24.4981 13.0234 24.6616 12.9088 24.6616 12.6798C24.6616 12.4834 24.5145 12.3526 24.2367 12.2871L19.9058 12.3689L20.0365 12.7779C20.4124 13.3015 20.8046 13.825 21.1805 14.365C21.2132 14.3159 21.2295 14.2504 21.2622 14.185C21.5401 13.6778 22.0467 13.3506 22.7985 13.2033Z" fill="#EDEDED"/>
<path d="M72.9389 46.9072C72.6774 46.9072 72.514 47.1526 72.4323 47.6434C72.3505 48.167 72.1871 48.756 71.9256 49.3941C71.6641 50.0322 71.3373 50.5721 70.9614 51.0302C70.2913 51.8646 69.3598 52.3391 68.1831 52.4863C67.0064 52.6336 65.6662 52.7154 64.1627 52.7154C63.0677 52.7154 62.1525 52.6826 61.3844 52.6335C60.6163 52.5845 59.9789 52.5027 59.4722 52.4045C58.9656 52.3063 58.557 52.1754 58.2302 52.0118C57.9033 51.8482 57.6418 51.6519 57.413 51.4228C56.8901 50.932 56.5468 49.6886 56.3998 47.7089C56.2527 45.7128 56.171 42.6533 56.171 38.5303V32.624H51.4478V38.4158C51.4478 41.0336 51.4315 43.3569 51.4151 45.4347C53.507 48.2815 55.599 51.1283 57.6745 53.9752V54.2206L50.4672 53.9752C50.3365 53.8115 50.2221 53.6479 50.1077 53.5007C49.9443 53.6152 49.7645 53.697 49.5357 53.7461C49.2742 53.8279 48.9964 53.877 48.6859 53.9097C48.3917 53.9424 48.0975 53.9588 47.836 53.9588C47.5418 53.9588 47.3784 54.0733 47.3784 54.3024C47.3784 54.5969 47.6726 54.7605 48.2773 54.7605C48.6859 54.7605 49.1925 54.7441 49.7645 54.7278C50.3528 54.7114 50.9249 54.6787 51.4805 54.646C52.0362 54.646 52.5428 54.6296 52.9677 54.6132C53.3926 54.5969 53.6705 54.5805 53.7849 54.5805C54.602 54.5805 55.4682 54.5969 56.3671 54.6132C57.2659 54.6296 58.3119 54.6787 59.5213 54.7605C60.7143 54.7932 62.0708 54.8423 63.5743 54.875C65.0779 54.9077 66.8429 54.9241 68.8695 54.9241C69.6213 54.9241 70.2096 54.9077 70.6345 54.875C71.0594 54.8423 71.4026 54.7605 71.6151 54.646C71.8439 54.5314 72.0073 54.3842 72.0891 54.1878C72.1871 54.0079 72.2852 53.7297 72.3996 53.4025C72.514 52.9935 72.612 52.4863 72.7101 51.9137C72.8081 51.3247 72.8899 50.752 72.9879 50.1958C73.086 49.6395 73.1513 49.1323 73.184 48.6742C73.2167 48.2161 73.2331 47.9216 73.2331 47.7743C73.2821 47.1853 73.1677 46.9072 72.9389 46.9072Z" fill="#EDEDED"/>
<path d="M56.1709 28.4846C56.1709 26.3085 56.1709 24.5252 56.1709 23.1345C56.1709 21.7438 56.1709 20.6313 56.1709 19.7805C56.1709 18.9297 56.1873 18.2589 56.2036 17.7517C56.2199 17.2445 56.2526 16.7701 56.2853 16.312C56.367 15.3303 56.5305 14.594 56.8246 14.0869C57.1025 13.5797 57.6581 13.2524 58.4916 13.1052C58.8348 13.0234 59.178 12.9907 59.5376 12.9579C59.8971 12.9416 60.1586 12.9252 60.3547 12.9252C60.6489 12.9252 60.8123 12.8107 60.8123 12.5816C60.8123 12.2871 60.5181 12.1235 59.9135 12.1235C59.5049 12.1235 58.9656 12.1399 58.3118 12.1563C57.6581 12.1726 57.0044 12.189 56.367 12.2053C55.7297 12.2217 55.174 12.2381 54.6837 12.2544C54.1934 12.2708 53.9156 12.2871 53.8339 12.2871C53.7521 12.2871 53.507 12.2708 53.0821 12.2544C52.6245 12.2708 52.1015 12.2544 51.4805 12.2381C50.8594 12.2217 50.1894 12.2053 49.4866 12.189C48.7675 12.1726 48.0975 12.1563 47.4601 12.1563C46.8554 12.1563 46.5612 12.3035 46.5612 12.6144C46.5612 12.8434 46.7083 12.9579 47.0188 12.9579C47.2803 12.9579 47.6072 12.9743 47.9994 12.9907C48.3916 13.007 48.7022 13.0561 48.931 13.1379C49.8625 13.3343 50.4835 13.6615 50.7941 14.1523C51.0882 14.6431 51.2843 15.3794 51.3497 16.3447C51.3824 16.8028 51.4151 17.2773 51.4314 17.7844C51.4478 18.2916 51.4641 18.9624 51.4641 19.8132C51.4641 20.664 51.4641 21.7765 51.4641 23.1672C51.4641 24.5579 51.4641 26.3413 51.4641 28.5173V30.2843H56.1873V28.4846H56.1709Z" fill="#EDEDED"/>
<path d="M57.6908 54.2038V53.9584C55.6153 51.1116 53.5234 48.2648 51.4315 45.418C51.4315 45.4834 51.4315 45.5652 51.4315 45.647C51.4151 47.774 51.3334 49.4264 51.1863 50.6371C51.0719 51.4715 50.9085 52.1587 50.7124 52.715C50.5816 53.0586 50.3855 53.304 50.124 53.4839C50.2384 53.6476 50.3692 53.7948 50.4836 53.9584L57.6908 54.2038Z" fill="#EDEDED"/>
<path d="M34.5982 40.6572L27.489 47.7743L34.5982 54.8913L41.7074 47.7743L34.5982 40.6572ZM36.8535 50.9483L34.5982 53.2061L29.1886 47.7906L31.444 45.5328L31.2969 45.3856L32.1957 44.4857L32.3428 44.633L34.5982 42.3751L36.8535 44.633L37.0006 44.4857L37.8995 45.4019L37.7524 45.5492L40.0077 47.807L37.7524 50.0648" fill="#EDEDED"/>
<path d="M34.5982 48.6904L34.1406 48.2323L36.8535 50.9482L37.7524 50.032L35.497 47.7905L34.5982 48.6904Z" fill="#EDEDED"/>
<path d="M32.4572 46.2037L33.3561 47.1036L33.1927 47.2835L33.683 47.7907L34.5982 46.8745L32.3428 44.6167L31.444 45.5329L32.2775 46.3673L32.4572 46.2037Z" fill="#EDEDED"/>
<path d="M32.2035 44.4898L31.302 45.3921L31.4407 45.5309L32.3422 44.6287L32.2035 44.4898Z" fill="#EDEDED"/>
<path d="M36.9846 44.471L36.8459 44.6099L37.7473 45.5122L37.8859 45.3734L36.9846 44.471Z" fill="#EDEDED"/>
<path d="M37.6185 45.394L35.3651 47.6499L36.2664 48.5523L38.5199 46.2963L37.6185 45.394Z" fill="#EDEDED"/>
<path d="M36.9848 44.4745L36.8461 44.6133L37.7474 45.5158L37.8861 45.377L36.9848 44.4745Z" fill="#EDEDED"/>
<path d="M33.6829 47.7907L34.1405 48.2325L34.5981 48.6906L35.497 47.7907L34.5981 46.8745L33.6829 47.7907Z" fill="#EDEDED"/>
<path d="M32.276 46.3786L31.132 47.5239L32.0333 48.4263L33.1774 47.281L32.276 46.3786Z" fill="#EDEDED"/>
<path d="M32.4597 46.2033L32.2864 46.377L33.1882 47.2789L33.3615 47.1053L32.4597 46.2033Z" fill="#EDEDED"/>
<path d="M27.2928 88.9878H26.5901V90.9838H27.0313V90.4276H27.2928C27.587 90.4276 27.7995 90.3621 27.9466 90.2476C28.0936 90.1331 28.159 89.9531 28.159 89.7077C28.159 89.4623 28.0936 89.2823 27.9466 89.1514C27.8322 89.0532 27.6034 88.9878 27.2928 88.9878ZM27.636 89.9531C27.587 90.0185 27.489 90.0513 27.3255 90.0513H27.0313V89.3805H27.2928C27.4399 89.3805 27.5543 89.4132 27.6197 89.4623C27.6851 89.5113 27.7178 89.5932 27.7178 89.7077C27.7178 89.8058 27.6851 89.8876 27.636 89.9531Z" fill="#EDEDED"/>
<path d="M30.398 89.642C30.398 89.4129 30.3326 89.233 30.2019 89.1348C30.0711 89.0366 29.8423 88.9712 29.5318 88.9712H28.78V90.9672H29.2213V90.3292H29.5318L29.9731 90.9672H30.5287L30.0221 90.2473C30.2836 90.1819 30.398 89.9692 30.398 89.642ZM29.8587 89.8874C29.8096 89.9365 29.6952 89.9692 29.5481 89.9692H29.2213V89.3802H29.5645C29.7116 89.3802 29.8096 89.3966 29.8587 89.4457C29.924 89.4784 29.9404 89.5602 29.9404 89.6747C29.9404 89.7565 29.924 89.8383 29.8587 89.8874Z" fill="#EDEDED"/>
<path d="M31.5583 90.1821H32.4572V89.7895H31.5583V89.3805H32.5552V88.9878H31.1171V90.9838H32.5879V90.5912H31.5583V90.1821Z" fill="#EDEDED"/>
<path d="M34.3694 90.084L33.8464 88.9878H33.2417V90.9838H33.683V89.724L34.2223 90.8202H34.5001L35.0394 89.724V90.9838H35.4807V88.9878H34.876L34.3694 90.084Z" fill="#EDEDED"/>
<path d="M36.6737 88.9878H36.2325V90.9838H36.6737V88.9878Z" fill="#EDEDED"/>
<path d="M38.6676 90.0837C38.6676 90.2474 38.6349 90.3619 38.5532 90.46C38.4715 90.5582 38.3734 90.6073 38.259 90.6073C38.1446 90.6073 38.0302 90.5582 37.9648 90.46C37.8831 90.3619 37.8504 90.2474 37.8504 90.0837V88.9712H37.4092V90.0837C37.4092 90.3782 37.4909 90.5909 37.6543 90.7545C37.8178 90.9182 38.0139 90.9836 38.2754 90.9836C38.5368 90.9836 38.733 90.9018 38.8964 90.7545C39.0598 90.6073 39.1415 90.3782 39.1415 90.0837V88.9712H38.7003V90.0837H38.6676Z" fill="#EDEDED"/>
<path d="M40.9393 90.084L40.4326 88.9878H39.8279V90.9838H40.2692V89.724L40.8085 90.8202H41.07L41.6257 89.724V90.9838H42.0669V88.9878H41.4622L40.9393 90.084Z" fill="#EDEDED"/>
<path d="M44.2732 88.9878H43.832V90.9838H45.1231V90.5912H44.2732V88.9878Z" fill="#EDEDED"/>
<path d="M46.1527 90.1821H47.0516V89.7895H46.1527V89.3805H47.1496V88.9878H45.7114V90.9838H47.1823V90.5912H46.1527V90.1821Z" fill="#EDEDED"/>
<path d="M48.4407 88.9878L47.5745 90.9838H48.0485L48.2282 90.5584H49.0617L49.2415 90.9838H49.7155L48.8493 88.9878H48.4407ZM48.408 90.1658L48.6532 89.5931L48.8983 90.1658H48.408Z" fill="#EDEDED"/>
<path d="M50.0587 89.3641H50.6143V90.9838H51.0719V89.3641H51.6276V88.9878H50.0587V89.3641Z" fill="#EDEDED"/>
<path d="M53.458 89.8222H52.6572V88.9878H52.2159V90.9838H52.6572V90.1985H53.458V90.9838H53.8993V88.9878H53.458V89.8222Z" fill="#EDEDED"/>
<path d="M55.0923 90.1821H55.9911V89.7895H55.0923V89.3805H56.0892V88.9878H54.651V90.9838H56.1219V90.5912H55.0923V90.1821Z" fill="#EDEDED"/>
<path d="M58.3936 89.642C58.3936 89.4129 58.3282 89.233 58.1975 89.1348C58.0667 89.0366 57.8379 88.9712 57.5274 88.9712H56.7756V90.9672H57.2169V90.3292H57.5274L57.9687 90.9672H58.5243L58.0177 90.2473C58.2792 90.1819 58.3936 89.9692 58.3936 89.642ZM57.8543 89.8874C57.8052 89.9365 57.6908 89.9692 57.5438 89.9692H57.2169V89.3802H57.5601C57.7072 89.3802 57.8052 89.3966 57.8543 89.4457C57.9196 89.4784 57.936 89.5602 57.936 89.6747C57.936 89.7565 57.9196 89.8383 57.8543 89.8874Z" fill="#EDEDED"/>
<path d="M24.2857 89.8218H0.3432C0.17977 89.8218 0.0653687 89.9527 0.0653687 90.1163C0.0653687 90.2799 0.196113 90.4108 0.3432 90.4108H24.2857C24.4491 90.4108 24.5635 90.2799 24.5635 90.1163C24.5635 89.9527 24.4328 89.8218 24.2857 89.8218Z" fill="#EDEDED"/>
<path d="M84.7222 89.8218H60.7797C60.6162 89.8218 60.5018 89.9527 60.5018 90.1163C60.5018 90.2799 60.6326 90.4108 60.7797 90.4108H84.7222C84.8856 90.4108 85 90.2799 85 90.1163C85 89.9527 84.8856 89.8218 84.7222 89.8218Z" fill="#EDEDED"/>
<path d="M84.9183 33H84.8856V34.4561H84.9183V33Z" fill="#EDEDED"/>
<path d="M84.2809 33H79.2473V34.4561H84.2809V33Z" fill="#EDEDED"/>
<path d="M78.9531 33H78.6752V34.4561H78.9531V33Z" fill="#EDEDED"/>
<path d="M84.8856 33H84.5914V34.4561H84.8856V33Z" fill="#EDEDED"/>
<path d="M79.2473 33H78.9531V34.4561H79.2473V33Z" fill="#EDEDED"/>
<path d="M84.5914 33H84.2972V34.4561H84.5914V33Z" fill="#EDEDED"/>
<path d="M84.5914 35.4214H84.2973H79.2473H78.9531H78.6589V59.8975L78.9531 60.2247L79.2473 60.5356L84.2973 65.902L84.5914 66.2292L84.8856 66.54V35.4214H84.5914Z" fill="#EDEDED"/>
<path d="M83.9214 66.8839L77.9888 61.5175L77.662 61.2066L77.3188 60.9121H7.43606L7.12554 61.2066L6.81503 61.5175L1.09497 66.8839L0.784455 67.1784L0.473938 67.4729H84.5751L84.2482 67.1784L83.9214 66.8839Z" fill="#EDEDED"/>
<path d="M78.9531 7.23161L78.6589 7.55883V32.0513H78.9531H79.2473H84.2973V0.932617L79.2473 6.90439L78.9531 7.23161Z" fill="#EDEDED"/>
<path d="M5.68737 60.3719L5.99788 60.0447L6.29206 59.7175V35.4214H5.99788H5.68737H0.653717H0.359543H0.0653687V66.6219L0.359543 66.2783L0.653717 65.9511L5.68737 60.3719Z" fill="#EDEDED"/>
<path d="M1.19301 0.588997L6.78232 5.66091L7.12553 5.95541L7.45239 6.26627H77.6129L77.9234 5.95541L78.234 5.66091L83.6272 0.588997L83.954 0.294498L84.2645 0H0.522949L0.849809 0.294498L1.19301 0.588997Z" fill="#EDEDED"/>
<path d="M0.653717 32.0511H5.68737H5.99788H6.29206V7.42773L5.99788 7.10051L5.68737 6.78965L0.653717 1.42324L0.359543 1.09602L0.0653687 0.785156V32.0511H0.359543H0.653717Z" fill="#EDEDED"/>
<path d="M5.99788 33H5.68737H0.653717H0.359543H0.0653687V34.4725H0.359543H0.653717H5.68737H5.99788H6.29206V33H5.99788Z" fill="#EDEDED"/>
<path d="M20.5922 30.9224H15.8854V31.9367H20.5922V30.9224Z" fill="#EDEDED"/>
<path d="M56.1546 30.9224H51.4478V31.9367H56.1546V30.9224Z" fill="#EDEDED"/>
</g>
<defs>
<clipPath id="clip0_90_295">
<rect width="85" height="91" fill="white"/>
</clipPath>
</defs>
</svg>
