<svg width="26" height="26" viewBox="0 0 26 26" fill="none" xmlns="http://www.w3.org/2000/svg">
<path d="M9.08313 2.68583L8.15103 2.96663C7.32108 3.21691 6.5799 3.69908 6.01472 4.35638C5.44955 5.01367 5.08391 5.81874 4.96083 6.67683C4.57473 9.36523 5.43793 12.5086 7.51923 16.1135C9.59532 19.7093 11.8807 22.0259 14.3962 23.0399C15.2045 23.3657 16.0893 23.4525 16.9454 23.29C17.8015 23.1275 18.593 22.7226 19.2257 22.1234L19.9303 21.4552C20.3879 21.0222 20.6726 20.4378 20.7317 19.8106C20.7907 19.1834 20.6201 18.5561 20.2514 18.0453L18.4886 15.6013C18.2503 15.2714 17.9147 15.0243 17.5289 14.8947C17.143 14.765 16.7263 14.7594 16.3371 14.8785L13.6708 15.6936L13.6019 15.7066C13.3081 15.7495 12.6295 15.1138 11.7845 13.65C10.9005 12.1186 10.7185 11.2229 10.9616 10.9915L12.3175 9.72663C12.8129 9.2641 13.1512 8.65829 13.2852 7.99396C13.4193 7.32964 13.3423 6.64003 13.065 6.02163L12.2044 4.10933C11.9456 3.53387 11.4864 3.07216 10.9124 2.81025C10.3384 2.54835 9.68736 2.50412 9.08313 2.68583ZM11.0214 4.64233L11.8794 6.55463C12.0459 6.92554 12.0923 7.33922 12.0122 7.73781C11.932 8.1364 11.7292 8.49995 11.4322 8.77763L10.0724 10.0438C9.20143 10.868 9.49002 12.2746 10.66 14.3C11.7598 16.2058 12.7634 17.147 13.8424 16.9832L14.0036 16.9494L16.718 16.1213C16.8478 16.0815 16.9867 16.0832 17.1154 16.1264C17.2441 16.1695 17.3561 16.2518 17.4356 16.3618L19.1984 18.8058C19.383 19.0612 19.4686 19.375 19.4391 19.6887C19.4097 20.0024 19.2674 20.2948 19.0385 20.5114L18.3326 21.1796C17.8807 21.6074 17.3154 21.8964 16.7041 22.0123C16.0927 22.1282 15.4609 22.0661 14.8837 21.8335C12.6763 20.9443 10.5898 18.8292 8.64633 15.4635C6.69763 12.09 5.90853 9.22093 6.24783 6.86143C6.33566 6.24839 6.59681 5.6732 7.00055 5.2036C7.40429 4.73399 7.93379 4.38951 8.52673 4.21073L9.45883 3.92993C9.76102 3.83912 10.0859 3.86133 10.373 3.9924C10.66 4.12348 10.8895 4.35448 11.0188 4.64233" fill="black"/>
</svg>
