<svg width="35" height="35" viewBox="0 0 35 35" fill="none" xmlns="http://www.w3.org/2000/svg">
<path d="M2.9165 16.0416L7.01005 11.4377C7.55732 10.8218 8.22886 10.3288 8.98043 9.99125C9.732 9.65368 10.5466 9.47913 11.3705 9.47913H11.6665M2.9165 28.4375H10.9373L16.7707 24.0625C16.7707 24.0625 17.9519 23.2648 19.6873 21.875C23.3332 18.9583 19.6873 14.3412 16.0415 16.7708C13.0723 18.7498 10.2082 20.4166 10.2082 20.4166" stroke="black" stroke-width="1.5" stroke-linecap="round" stroke-linejoin="round"/>
<path d="M11.6665 19.6875V10.2083C11.6665 9.43474 11.9738 8.69288 12.5208 8.1459C13.0678 7.59892 13.8096 7.29163 14.5832 7.29163H29.1665C29.9401 7.29163 30.6819 7.59892 31.2289 8.1459C31.7759 8.69288 32.0832 9.43474 32.0832 10.2083V18.9583C32.0832 19.7318 31.7759 20.4737 31.2289 21.0207C30.6819 21.5677 29.9401 21.875 29.1665 21.875H19.6873" stroke="black" stroke-width="1.5"/>
<path d="M28.4375 14.5979L28.4521 14.5818M15.3125 14.5979L15.3271 14.5818M21.875 17.5C21.1015 17.5 20.3596 17.1927 19.8126 16.6457C19.2656 16.0987 18.9583 15.3568 18.9583 14.5833C18.9583 13.8097 19.2656 13.0679 19.8126 12.5209C20.3596 11.9739 21.1015 11.6666 21.875 11.6666C22.6485 11.6666 23.3904 11.9739 23.9374 12.5209C24.4844 13.0679 24.7917 13.8097 24.7917 14.5833C24.7917 15.3568 24.4844 16.0987 23.9374 16.6457C23.3904 17.1927 22.6485 17.5 21.875 17.5Z" stroke="black" stroke-width="1.5" stroke-linecap="round" stroke-linejoin="round"/>
</svg>
