<svg width="28" height="28" viewBox="0 0 28 28" fill="none" xmlns="http://www.w3.org/2000/svg">
<path fill-rule="evenodd" clip-rule="evenodd" d="M14.2882 24.4638C15.63 23.2463 16.8718 21.9229 18.0017 20.5065C20.3817 17.5163 21.8295 14.5681 21.9275 11.9466C21.9663 10.8812 21.7899 9.81895 21.409 8.82322C21.028 7.8275 20.4503 6.91878 19.7102 6.15133C18.9702 5.38389 18.0831 4.77347 17.1019 4.35655C16.1207 3.93962 15.0655 3.72474 13.9994 3.72474C12.9333 3.72474 11.8781 3.93962 10.8969 4.35655C9.91571 4.77347 9.0286 5.38389 8.28858 6.15133C7.54856 6.91878 6.97082 7.8275 6.58986 8.82322C6.2089 9.81895 6.03254 10.8812 6.07132 11.9466C6.17049 14.5681 7.61949 17.5163 9.99832 20.5065C11.1282 21.9229 12.37 23.2463 13.7118 24.4638C13.8409 24.5805 13.937 24.6653 14 24.7181L14.2882 24.4638ZM13.139 25.823C13.139 25.823 4.66666 18.6876 4.66666 11.6666C4.66666 9.19129 5.64999 6.81732 7.40033 5.06698C9.15067 3.31664 11.5246 2.33331 14 2.33331C16.4753 2.33331 18.8493 3.31664 20.5997 5.06698C22.35 6.81732 23.3333 9.19129 23.3333 11.6666C23.3333 18.6876 14.861 25.823 14.861 25.823C14.3897 26.257 13.6138 26.2523 13.139 25.823ZM14 14.9333C14.8664 14.9333 15.6973 14.5891 16.3099 13.9765C16.9225 13.3639 17.2667 12.533 17.2667 11.6666C17.2667 10.8003 16.9225 9.96938 16.3099 9.35676C15.6973 8.74414 14.8664 8.39998 14 8.39998C13.1336 8.39998 12.3027 8.74414 11.6901 9.35676C11.0775 9.96938 10.7333 10.8003 10.7333 11.6666C10.7333 12.533 11.0775 13.3639 11.6901 13.9765C12.3027 14.5891 13.1336 14.9333 14 14.9333ZM14 16.3333C12.7623 16.3333 11.5753 15.8416 10.7002 14.9665C9.82499 14.0913 9.33332 12.9043 9.33332 11.6666C9.33332 10.429 9.82499 9.24198 10.7002 8.36681C11.5753 7.49164 12.7623 6.99998 14 6.99998C15.2377 6.99998 16.4247 7.49164 17.2998 8.36681C18.175 9.24198 18.6667 10.429 18.6667 11.6666C18.6667 12.9043 18.175 14.0913 17.2998 14.9665C16.4247 15.8416 15.2377 16.3333 14 16.3333Z" fill="black"/>
</svg>
