<svg width="36" height="35" viewBox="0 0 36 35" fill="none" xmlns="http://www.w3.org/2000/svg">
<g clip-path="url(#clip0_406_1968)">
<path d="M0.333496 6.5625V8.75H21.1147V25.1562H14.3816C13.8938 23.2761 12.2029 21.875 10.1772 21.875C8.15162 21.875 6.46068 23.2761 5.97287 25.1562H4.7085V19.6875H2.521V27.3438H5.97287C6.46068 29.2239 8.15162 30.625 10.1772 30.625C12.2029 30.625 13.8938 29.2239 14.3816 27.3438H23.4729C23.9607 29.2239 25.6516 30.625 27.6772 30.625C29.7029 30.625 31.3938 29.2239 31.8816 27.3438H35.3335V18.4231L35.2646 18.2514L33.0771 11.6889L32.8397 10.9375H23.3022V6.5625H0.333496ZM1.42725 10.9375V13.125H11.271V10.9375H1.42725ZM23.3022 13.125H31.2658L33.146 18.7305V25.1562H31.8816C31.3938 23.2761 29.7029 21.875 27.6772 21.875C25.6516 21.875 23.9607 23.2761 23.4729 25.1562H23.3022V13.125ZM2.521 15.3125V17.5H9.0835V15.3125H2.521ZM10.1772 24.0625C11.399 24.0625 12.3647 25.0283 12.3647 26.25C12.3647 27.4717 11.399 28.4375 10.1772 28.4375C8.95553 28.4375 7.98975 27.4717 7.98975 26.25C7.98975 25.0283 8.95553 24.0625 10.1772 24.0625ZM27.6772 24.0625C28.899 24.0625 29.8647 25.0283 29.8647 26.25C29.8647 27.4717 28.899 28.4375 27.6772 28.4375C26.4555 28.4375 25.4897 27.4717 25.4897 26.25C25.4897 25.0283 26.4555 24.0625 27.6772 24.0625Z" fill="black"/>
</g>
<defs>
<clipPath id="clip0_406_1968">
<rect width="35" height="35" fill="white" transform="translate(0.333496)"/>
</clipPath>
</defs>
</svg>
