<svg width="25" height="25" viewBox="0 0 25 25" fill="none" xmlns="http://www.w3.org/2000/svg">
<path d="M22.1353 12.5H9.26554M4.72284 12.5H2.8645M4.72284 12.5C4.72284 11.8977 4.96208 11.3201 5.38795 10.8943C5.81381 10.4684 6.39141 10.2292 6.99367 10.2292C7.59593 10.2292 8.17353 10.4684 8.59939 10.8943C9.02525 11.3201 9.2645 11.8977 9.2645 12.5C9.2645 13.1022 9.02525 13.6798 8.59939 14.1057C8.17353 14.5316 7.59593 14.7708 6.99367 14.7708C6.39141 14.7708 5.81381 14.5316 5.38795 14.1057C4.96208 13.6798 4.72284 13.1022 4.72284 12.5ZM22.1353 19.3823H16.1478M16.1478 19.3823C16.1478 19.9847 15.908 20.5629 15.4821 20.9889C15.0561 21.4149 14.4784 21.6542 13.876 21.6542C13.2737 21.6542 12.6961 21.4139 12.2702 20.988C11.8444 20.5621 11.6051 19.9845 11.6051 19.3823M16.1478 19.3823C16.1478 18.7799 15.908 18.2027 15.4821 17.7767C15.0561 17.3507 14.4784 17.1114 13.876 17.1114C13.2737 17.1114 12.6961 17.3507 12.2702 17.7766C11.8444 18.2024 11.6051 18.78 11.6051 19.3823M11.6051 19.3823H2.8645M22.1353 5.6177H18.901M14.3583 5.6177H2.8645M14.3583 5.6177C14.3583 5.01543 14.5975 4.43784 15.0234 4.01197C15.4492 3.58611 16.0268 3.34686 16.6291 3.34686C16.9273 3.34686 17.2226 3.4056 17.4981 3.51972C17.7736 3.63384 18.0239 3.80111 18.2348 4.01197C18.4457 4.22284 18.6129 4.47318 18.7271 4.74869C18.8412 5.0242 18.8999 5.31949 18.8999 5.6177C18.8999 5.91591 18.8412 6.2112 18.7271 6.48671C18.6129 6.76222 18.4457 7.01255 18.2348 7.22342C18.0239 7.43428 17.7736 7.60155 17.4981 7.71567C17.2226 7.82979 16.9273 7.88853 16.6291 7.88853C16.0268 7.88853 15.4492 7.64928 15.0234 7.22342C14.5975 6.79755 14.3583 6.21996 14.3583 5.6177Z" stroke="black" stroke-width="0.9375" stroke-miterlimit="10" stroke-linecap="round"/>
</svg>
