<svg width="30" height="30" viewBox="0 0 30 30" fill="none" xmlns="http://www.w3.org/2000/svg">
<path d="M1.25 17.3213V12.6788C1.25 12.0157 1.51339 11.3798 1.98223 10.911C2.45107 10.4422 3.08696 10.1788 3.75 10.1788H7.375C7.6194 10.1787 7.85842 10.107 8.0625 9.97252L15.5625 5.02752C15.7509 4.90342 15.9695 4.83264 16.1949 4.82269C16.4203 4.81274 16.6442 4.86399 16.8428 4.971C17.0415 5.07801 17.2075 5.23679 17.3232 5.4305C17.4389 5.62422 17.5 5.84563 17.5 6.07127V23.9288C17.5 24.1544 17.4389 24.3758 17.3232 24.5695C17.2075 24.7632 17.0415 24.922 16.8428 25.029C16.6442 25.136 16.4203 25.1873 16.1949 25.1773C15.9695 25.1674 15.7509 25.0966 15.5625 24.9725L8.0625 20.0275C7.85842 19.893 7.6194 19.8213 7.375 19.8213H3.75C3.08696 19.8213 2.45107 19.5579 1.98223 19.089C1.51339 18.6202 1.25 17.9843 1.25 17.3213Z" stroke="white" stroke-width="1.875"/>
<path d="M21.875 9.375C21.875 9.375 23.75 11.25 23.75 14.375C23.75 17.5 21.875 19.375 21.875 19.375M25.625 5.625C25.625 5.625 28.75 8.75 28.75 14.375C28.75 20 25.625 23.125 25.625 23.125" stroke="white" stroke-width="1.875" stroke-linecap="round" stroke-linejoin="round"/>
</svg>
