<svg width="50" height="60" viewBox="0 0 50 60" fill="none" xmlns="http://www.w3.org/2000/svg">
<path d="M13.3337 29.2857L23.3337 37.6191L36.667 20.9524M25.0003 52.6191C21.9362 52.6191 18.902 52.0155 16.071 50.8429C13.2401 49.6703 10.6679 47.9516 8.50117 45.7849C6.33447 43.6182 4.61575 41.0459 3.44314 38.215C2.27053 35.3841 1.66699 32.3499 1.66699 29.2857C1.66699 26.2216 2.27053 23.1874 3.44314 20.3564C4.61575 17.5255 6.33447 14.9533 8.50117 12.7866C10.6679 10.6199 13.2401 8.90115 16.071 7.72854C18.902 6.55593 21.9362 5.95239 25.0003 5.95239C31.1887 5.95239 37.1236 8.41072 41.4995 12.7866C45.8753 17.1624 48.3337 23.0973 48.3337 29.2857C48.3337 35.4741 45.8753 41.409 41.4995 45.7849C37.1236 50.1607 31.1887 52.6191 25.0003 52.6191Z" stroke="#0EB164" stroke-width="2"/>
</svg>
